<?xml version='1.0' encoding='utf-8'?>
<svg xmlns="http://www.w3.org/2000/svg" version="1.1" id="Layer_1" x="0px" y="0px" viewBox="0 0 191.8 73.1" style="enable-background:new 0 0 191.8 73.1;fill:#FFFFFF;fill-opacity:1" xml:space="preserve" color="#FFFFFF">
<style type="text/css">
	.st0{fill:#1A1818;}
	.st1{fill:#FFFFFF;}
</style>
<g>
	<path class="st0" d="M46.9,34.2c0,0.8-0.2,1.6-0.5,2.3c-0.4,0.7-0.8,1.3-1.5,1.8c-0.6,0.5-1.4,0.9-2.2,1.1   c-0.9,0.3-1.8,0.4-2.8,0.4c-1.2,0-2.3-0.2-3.3-0.5c-1-0.3-2-0.9-2.9-1.7l1.6-2.6c0.8,0.7,1.5,1.1,2.1,1.4c0.6,0.3,1.3,0.5,1.9,0.5   c0.8,0,1.4-0.2,1.9-0.6c0.5-0.4,0.7-1,0.7-1.7c0-0.3,0-0.6-0.1-0.8c-0.1-0.3-0.3-0.5-0.5-0.8c-0.2-0.3-0.6-0.6-1-0.9   c-0.4-0.3-0.9-0.7-1.6-1.2c-0.5-0.4-1-0.7-1.5-1.1c-0.5-0.4-0.9-0.8-1.3-1.2c-0.4-0.4-0.7-0.9-0.9-1.4c-0.2-0.5-0.4-1.1-0.4-1.8   c0-0.8,0.2-1.5,0.5-2.1c0.3-0.6,0.8-1.2,1.3-1.6c0.6-0.5,1.2-0.8,2-1.1c0.8-0.3,1.6-0.4,2.6-0.4c1,0,1.9,0.1,2.8,0.4   c0.9,0.3,1.8,0.6,2.5,1.1L44.9,24c-1-0.7-2.1-1.1-3.2-1.1c-0.7,0-1.2,0.2-1.7,0.5c-0.4,0.4-0.7,0.8-0.7,1.3c0,0.5,0.2,1,0.6,1.4   c0.4,0.4,1.1,1,2,1.7c1,0.7,1.7,1.3,2.4,1.8c0.6,0.5,1.1,1,1.5,1.5c0.4,0.5,0.6,0.9,0.8,1.4C46.8,33.1,46.9,33.6,46.9,34.2    M63.5,29.8c0,0.7-0.1,1.5-0.2,2.4c-0.2,0.8-0.4,1.6-0.8,2.3c-0.4,0.7-0.8,1.3-1.4,1.8c-0.6,0.5-1.3,0.7-2.3,0.7   c-1.5,0-2.7-0.6-3.6-1.8c-0.9-1.2-1.3-2.9-1.3-5c0-2.2,0.4-3.9,1.3-5.1c0.9-1.3,2.1-1.9,3.6-1.9c1.4,0,2.6,0.6,3.4,1.8   C63.1,26.1,63.5,27.7,63.5,29.8 M68.7,29.6c0-1.4-0.2-2.7-0.6-3.8c-0.4-1.2-1-2.1-1.7-3c-0.7-0.8-1.6-1.5-2.6-1.9   c-1-0.5-2.1-0.7-3.4-0.7c-1.4,0-2.5,0.3-3.6,0.8c-1,0.5-2,1.3-2.9,2.4l0-2.7h-4.8v28.2h4.8V36.9c0.5,0.6,0.9,1,1.4,1.4   c0.4,0.4,0.9,0.7,1.3,0.9c0.5,0.2,0.9,0.4,1.4,0.5c0.5,0.1,1,0.1,1.6,0.1c1.3,0,2.5-0.3,3.6-0.8c1.1-0.5,2.1-1.2,2.9-2.2   c0.8-0.9,1.4-2,1.9-3.3C68.5,32.4,68.7,31,68.7,29.6 M70.9,39.4h5V11.8h-5V39.4z M97,39.4V20.6h-5v10.1c0,0.9,0,1.6-0.1,2.1   c-0.1,0.5-0.2,0.9-0.4,1.3c-0.7,1.6-2,2.3-3.9,2.3c-1.5,0-2.5-0.5-3.1-1.6c-0.2-0.4-0.4-0.9-0.5-1.4C84.1,33,84,32.3,84,31.3V20.6   h-5v10.7c0,0.7,0,1.3,0,1.8c0,0.5,0,0.9,0.1,1.3c0.1,0.4,0.1,0.7,0.2,1c0.1,0.3,0.2,0.6,0.3,0.9c0.5,1.2,1.2,2,2.2,2.6   c1,0.6,2.3,0.9,3.7,0.9c1.3,0,2.5-0.2,3.5-0.7c1-0.5,2-1.2,2.9-2.3l0,2.5H97z M118.4,39.4V28.7c0-0.7,0-1.3,0-1.9   c0-0.5,0-1-0.1-1.3c-0.1-0.4-0.1-0.7-0.2-1c-0.1-0.3-0.2-0.6-0.3-0.8c-0.5-1.1-1.2-2-2.2-2.6c-1-0.6-2.3-0.9-3.7-0.9   c-1.3,0-2.5,0.2-3.5,0.7c-1,0.5-2,1.2-2.9,2.3l0-2.5h-5v18.8h5V29.2c0-0.9,0-1.6,0.1-2c0.1-0.5,0.2-0.9,0.4-1.4   c0.3-0.8,0.8-1.3,1.5-1.7c0.7-0.4,1.5-0.6,2.4-0.6c1.5,0,2.5,0.5,3.1,1.6c0.2,0.4,0.4,0.9,0.5,1.4c0.1,0.5,0.1,1.2,0.1,2.2v10.7   H118.4z M138.9,38.1l-7.6-9.4l6.4-6.8l-3.8-1.6l-6.6,7.7h-0.5V11.8h-5v27.6h5v-10l7.5,10.4L138.9,38.1z M158.2,31.4v-3.1l-15-7.5   v3.4l11.6,5.7l-11.6,5.7v3.3L158.2,31.4z" />
	<g>
		<g>
			<g>
				<path d="M55.2,54.7H54c0.1-0.6,0.3-1.1,0.8-1.4c0.5-0.3,1-0.4,1.7-0.4c0.8,0,1.4,0.2,1.9,0.6c0.4,0.4,0.5,0.8,0.5,1.4V59h-0.9      L58,58.2c-0.5,0.7-1.1,1-2,1c-0.7,0-1.2-0.2-1.6-0.5c-0.3-0.3-0.5-0.7-0.5-1.2c0-0.6,0.2-1,0.6-1.4c0.4-0.3,0.9-0.5,1.6-0.6      l1.7-0.3v-0.3c0-0.4-0.1-0.7-0.4-0.9c-0.2-0.2-0.6-0.3-1-0.3C55.7,53.8,55.3,54.1,55.2,54.7z M56.2,58.3c0.5,0,0.9-0.2,1.2-0.5      c0.3-0.3,0.5-0.6,0.5-1v-0.8l-1.5,0.3c-0.5,0.1-0.9,0.2-1.1,0.4c-0.2,0.2-0.2,0.4-0.2,0.6c0,0.3,0.1,0.5,0.3,0.7      C55.6,58.2,55.9,58.3,56.2,58.3z" />
			</g>
			<g>
				<g>
					<rect x="73.9" y="50.8" width="2.1" height="8.3" />
					<path d="M86.3,54.9c0,2.7,2,4.3,4.4,4.3c0.9,0,1.6-0.2,1.9-0.3v-2.2c-0.1,0-0.8,0.4-1.7,0.4c-1.4,0-2.3-1-2.3-2.2       c0-1.3,0.9-2.2,2.3-2.2c1,0,1.7,0.4,1.7,0.4v-2.2c-0.2-0.1-0.9-0.3-1.9-0.3C88.2,50.6,86.3,52.5,86.3,54.9z" />
					<path d="M64.8,54.9c0,2.7,2,4.3,4.4,4.3c0.9,0,1.6-0.2,1.9-0.3v-2.2c-0.1,0-0.8,0.4-1.7,0.4c-1.4,0-2.3-1-2.3-2.2       c0-1.3,0.9-2.2,2.3-2.2c1,0,1.6,0.4,1.7,0.4v-2.2c-0.2-0.1-0.9-0.3-1.9-0.3C66.6,50.6,64.8,52.5,64.8,54.9z" />
					<path d="M99.1,50.6c-2.5,0-4.3,1.9-4.3,4.3c0,2.4,1.8,4.3,4.3,4.3c2.5,0,4.3-1.9,4.3-4.3C103.4,52.6,101.6,50.6,99.1,50.6z        M99.1,57.1c-1.2,0-2.1-1-2.1-2.2c0-1.2,0.9-2.2,2.1-2.2c1.2,0,2.1,1,2.1,2.2C101.2,56.1,100.3,57.1,99.1,57.1z" />
					<path d="M82.4,54.1l-0.6-0.2c-0.3-0.1-0.9-0.3-0.9-0.8c0-0.4,0.4-0.7,1.3-0.7c0.7,0,1.6,0.2,1.6,0.3v-1.8c-0.1,0-1-0.3-2-0.3       c-1.9,0-3.1,1-3.1,2.6c0,1.4,1,2,2.1,2.4c0.1,0,0.3,0.1,0.4,0.1c0.5,0.2,0.9,0.4,0.9,0.8c0,0.5-0.5,0.8-1.5,0.8       c-0.9,0-1.8-0.3-2-0.3V59c0.1,0,1.1,0.2,2.2,0.2c1.6,0,3.4-0.7,3.4-2.8C84.3,55.4,83.7,54.5,82.4,54.1z" />
				</g>
			</g>
		</g>
		<g>
			<path d="M113.6,57.1h1.2c-0.1,0.6-0.4,1.2-0.9,1.5c-0.5,0.4-1,0.5-1.7,0.5c-0.9,0-1.6-0.3-2.1-0.9c-0.5-0.6-0.7-1.3-0.7-2.2     c0-1.1,0.3-1.9,0.9-2.4c0.5-0.5,1.1-0.7,1.9-0.7c0.7,0,1.3,0.2,1.8,0.6c0.4,0.3,0.7,0.8,0.8,1.4h-1.2c-0.1-0.3-0.2-0.6-0.5-0.7     c-0.2-0.2-0.5-0.3-0.9-0.3c-0.5,0-1,0.2-1.2,0.6c-0.3,0.4-0.4,0.9-0.4,1.7c0,0.7,0.2,1.3,0.5,1.7c0.3,0.3,0.7,0.5,1.1,0.5     c0.4,0,0.7-0.1,1-0.3C113.4,57.7,113.5,57.5,113.6,57.1z" />
			<path d="M115.8,56.1c0-1.1,0.3-1.9,1-2.5c0.5-0.5,1.2-0.7,2-0.7c0.9,0,1.6,0.3,2.2,0.9c0.5,0.5,0.8,1.3,0.8,2.3     c0,1.1-0.3,1.9-0.9,2.5c-0.5,0.5-1.2,0.7-2,0.7c-0.9,0-1.7-0.3-2.2-0.9C116.1,57.7,115.8,57,115.8,56.1z M116.9,56.1     c0,0.8,0.2,1.3,0.6,1.8c0.3,0.3,0.7,0.5,1.2,0.5c0.6,0,1-0.2,1.3-0.7c0.3-0.4,0.4-0.9,0.4-1.6c0-0.8-0.2-1.4-0.6-1.8     c-0.3-0.3-0.7-0.5-1.2-0.5c-0.6,0-1,0.2-1.3,0.7C117.1,54.9,116.9,55.4,116.9,56.1z" />
			<path d="M124.1,59H123v-5.9h0.9l0.1,0.7c0.4-0.6,1-0.9,1.8-0.9c0.8,0,1.4,0.3,1.8,0.9c0.4-0.6,1-0.9,1.9-0.9     c0.7,0,1.2,0.2,1.5,0.6c0.3,0.4,0.5,0.9,0.5,1.5v4h-1.1v-3.9c0-0.9-0.4-1.3-1.2-1.3c-0.5,0-0.8,0.2-1.1,0.5     c-0.2,0.3-0.3,0.6-0.3,1V59h-1.1v-3.9c0-0.9-0.4-1.3-1.2-1.3c-0.4,0-0.8,0.2-1.1,0.5c-0.2,0.3-0.4,0.6-0.4,1V59z" />
			<path d="M133.2,53.1h0.9l0.2,0.8c0.5-0.6,1.2-0.9,2-0.9c0.9,0,1.5,0.3,2,0.9c0.4,0.5,0.6,1.3,0.6,2.2c0,1.1-0.3,1.9-0.9,2.5     c-0.5,0.5-1.1,0.7-1.8,0.7c-0.8,0-1.5-0.3-1.9-0.9v2.8h-1.1V53.1z M137.7,56c0-0.7-0.2-1.3-0.6-1.7c-0.3-0.3-0.7-0.5-1.2-0.5     c-0.6,0-1,0.2-1.3,0.6c-0.3,0.4-0.5,0.9-0.5,1.5c0,0.8,0.2,1.3,0.6,1.8c0.3,0.4,0.7,0.5,1.2,0.5c0.6,0,1-0.2,1.3-0.6     C137.6,57.3,137.7,56.7,137.7,56z" />
			<path d="M141.2,54.7H140c0.1-0.6,0.3-1.1,0.8-1.4c0.5-0.3,1-0.4,1.7-0.4c0.8,0,1.4,0.2,1.9,0.6c0.4,0.4,0.5,0.8,0.5,1.4V59h-0.9     l-0.1-0.8c-0.5,0.7-1.1,1-2,1c-0.7,0-1.2-0.2-1.6-0.5c-0.3-0.3-0.5-0.7-0.5-1.2c0-0.6,0.2-1,0.6-1.4c0.4-0.3,0.9-0.5,1.6-0.6     l1.7-0.3v-0.3c0-0.4-0.1-0.7-0.4-0.9c-0.2-0.2-0.6-0.3-1-0.3C141.7,53.8,141.3,54.1,141.2,54.7z M142.2,58.3     c0.5,0,0.9-0.2,1.2-0.5c0.3-0.3,0.5-0.6,0.5-1v-0.8l-1.5,0.3c-0.5,0.1-0.9,0.2-1.1,0.4c-0.2,0.2-0.2,0.4-0.2,0.6     c0,0.3,0.1,0.5,0.3,0.7C141.6,58.2,141.9,58.3,142.2,58.3z" />
			<path d="M147.8,59h-1.1v-5.9h0.9l0.1,0.8c0.4-0.6,1-0.9,1.8-0.9c0.7,0,1.2,0.2,1.6,0.7c0.3,0.4,0.5,0.9,0.5,1.6V59h-1.1v-3.9     c0-0.9-0.4-1.3-1.3-1.3c-0.4,0-0.8,0.2-1.1,0.5c-0.3,0.3-0.4,0.6-0.4,1.1V59z" />
			<path d="M158.2,53.1l-2.1,6c-0.3,0.8-0.5,1.3-0.8,1.6c-0.3,0.3-0.7,0.5-1.2,0.5c-0.2,0-0.4,0-0.7-0.1v-0.9     c0.2,0.1,0.4,0.1,0.6,0.1c0.2,0,0.4-0.1,0.5-0.2c0.1-0.2,0.3-0.5,0.5-1.1h-0.4l-2.2-5.9h1.2l1.7,5.1l1.7-5.1H158.2z" />
		</g>
	</g>
</g>
<style type="text/css">
* { fill: #FFFFFF !important; stroke: #FFFFFF !important; }
#background, .background, .bg { fill: none !important; stroke: none !important; }
</style></svg>